PathFileType	3	(X/Y/Z)	D:\minhoCalibration\240510\subject2_KPNP\preferred\preferred11.trc
DataRate	CameraRate	NumFrames	NumMarkers	Units	OrigDataRate	OrigDataStartFrame	OrigNumFrames
200.0	200.0	18	10	mm	200.0	323	182	
Frame#	Time	Left_Ankle_Outer1			Left_Ankle_Inner1			Left_Knee_Outer1			Left_Knee_Inner1			Left_Wrist1			Right_Wrist1			Right_Knee_Inner1			Right_Knee_Outer1			Right_Ankle_Inner1			Right_Ankle_Outer1			
		X1	Y1	Z1	X2	Y2	Z2	X3	Y3	Z3	X4	Y4	Z4	X5	Y5	Z5	X6	Y6	Z6	X7	Y7	Z7	X8	Y8	Z8	X9	Y9	Z9	X10	Y10	Z10	
323	1.605	-615.97424	121.17447	-633.39111	-619.12634	124.21075	-578.16187	-445.32803	529.91772	-668.97369	-463.11633	515.46545	-575.59863	-547.48071	960.68927	-776.96094	-603.25842	1172.7715	-502.1391	-369.25485	931.04156	-170.58159	-388.35654	1022.0996	-158.20831	-378.77222	777.49481	202.81729	-396.85254	868.23706	241.38168
324	1.61	-616.59393	119.84535	-634.62079	-619.93152	122.77438	-579.37012	-446.27621	528.79419	-669.4809	-465.55496	513.98724	-575.74725	-545.65314	960.38239	-775.83197	-606.35852	1171.9969	-501.78009	-368.41141	927.17834	-171.19768	-388.50549	1017.9573	-158.88496	-385.71826	765.18628	198.29465	-405.48138	854.461	238.54681
325	1.615	-617.15594	118.20712	-635.51874	-620.95001	120.90427	-581.00415	-448.03604	527.33685	-669.05817	-468.20129	512.7442	-575.74915	-543.8208	959.88678	-774.64325	-609.14117	1170.9437	-501.4534	-369.03778	921.96082	-171.08324	-389.46634	1013.7637	-159.33264	-392.39694	752.54321	193.04593	-414.88297	840.33929	235.3732
326	1.62	-617.86487	116.66472	-636.59778	-622.1546	120.36407	-579.58698	-449.04465	525.98328	-669.20477	-471.02951	511.66266	-575.76398	-542.31384	959.16846	-773.2514	-611.94067	1169.8143	-500.81677	-367.71048	918.77356	-172.35423	-390.9437	1009.5885	-159.55095	-399.4537	739.3689	187.15372	-424.09317	825.51123	231.03691
327	1.625	-618.56348	114.9879	-637.22345	-623.11224	118.78676	-580.42828	-450.07822	524.91602	-668.88818	-473.88531	510.71149	-575.67566	-541.09302	958.26251	-771.76599	-614.3493	1168.2618	-500.11957	-368.14505	914.94464	-172.27612	-392.78412	1005.4078	-159.52142	-406.94052	726.35107	181.04912	-434.06073	810.7453	226.69304
328	1.63	-619.39355	113.3226	-637.85059	-624.19141	115.48212	-584.76288	-450.93588	524.0564	-668.52393	-476.77094	509.72546	-575.49121	-539.91101	957.34113	-770.50067	-616.414	1166.3582	-499.35162	-366.60016	911.99878	-173.60257	-394.74915	1001.1191	-159.24619	-414.47647	712.3775	173.88535	-443.52789	795.38635	221.15932
329	1.635	-620.08398	111.90768	-638.61176	-625.09821	115.48857	-582.0033	-451.84634	523.19238	-668.04279	-479.48709	508.9426	-575.41205	-539.14087	956.34558	-769.10175	-618.45221	1164.3406	-498.51532	-366.70276	908.2403	-173.46802	-396.97614	996.63116	-158.81378	-422.36197	698.58337	166.43828	-453.45856	780.10437	215.39342
330	1.64	-620.78619	110.3954	-639.06116	-626.40253	112.14509	-585.81097	-452.34836	522.85638	-667.81158	-481.7832	508.27576	-575.20483	-538.1897	955.47174	-768.18939	-620.5152	1162.3176	-497.56467	-366.43552	904.97229	-174.78343	-399.30118	991.69794	-158.47639	-430.52332	684.5257	158.49503	-463.59454	764.68042	209.10243
331	1.645	-621.49805	108.59599	-639.07324	-627.12195	111.44444	-584.40204	-453.72775	521.69275	-667.16699	-484.61096	507.29852	-575.32629	-537.44708	954.66681	-767.33545	-622.45453	1160.1594	-496.76422	-366.45966	901.10168	-175.77699	-402.10785	986.66943	-157.99069	-436.26859	673.40698	148.405	-473.66495	749.17981	202.13292
332	1.65	-622.27612	107.08006	-639.19861	-628.48859	108.70279	-586.69604	-454.41809	521.24036	-666.99518	-486.84262	506.26129	-575.01654	-536.7005	954.00439	-766.83356	-624.42847	1157.9908	-495.91577	-366.44144	897.16852	-177.0647	-405.14502	981.38635	-157.4035	-447.51929	657.09857	141.76413	-484.12192	733.55817	194.87234
333	1.655	-622.97876	105.61678	-639.21991	-629.38861	107.11175	-587.03278	-455.84747	519.9707	-666.65662	-488.55423	505.54376	-575.06946	-535.91235	953.51843	-766.61365	-626.33118	1155.6761	-495.0928	-366.67166	893.01917	-178.80078	-408.41428	975.82996	-156.6568	-458.48639	642.51868	135.32762	-494.59467	717.97919	186.91858
334	1.66	-623.60004	104.28191	-639.07288	-629.55554	108.06306	-582.44226	-457.15076	519.00171	-666.52185	-490.29678	504.51047	-575.2121	-535.14069	953.23877	-766.59747	-628.19159	1153.2734	-494.29721	-367.25833	888.89166	-179.91418	-411.75531	969.96191	-155.82996	-466.87683	628.51501	125.69057	-504.81714	702.2666	178.12997
335	1.665	-624.33026	102.93595	-638.94452	-629.93433	106.93314	-582.19916	-458.50641	517.88519	-666.59613	-491.84427	503.52521	-575.43158	-534.28119	953.14252	-766.78888	-630.00153	1150.7129	-493.50024	-368.84442	884.31189	-180.48335	-415.26392	963.77228	-154.84715	-475.26123	614.5946	115.45641	-515.30444	686.62933	168.95312
336	1.67	-625.05176	101.86265	-638.96631	-630.9032	105.48979	-582.04315	-459.79752	516.88654	-666.87335	-493.58911	502.33484	-575.71796	-533.48071	953.07147	-766.84247	-631.88739	1148.0291	-492.69626	-370.72821	879.59106	-181.04318	-418.86578	957.28601	-153.81932	-483.74146	600.61346	104.9296	-525.92169	671.1203	160.0885
337	1.675	-625.66876	100.62714	-638.66052	-631.20123	103.08328	-584.6933	-461.37381	515.66302	-667.12463	-494.21451	501.34509	-576.06879	-532.64862	953.12994	-766.9223	-633.83508	1145.2814	-491.9313	-372.94897	874.62512	-181.48997	-422.47034	950.5896	-152.84286	-492.32007	586.64929	94.041473	-536.12701	655.48553	149.44147
338	1.68	-626.34058	99.487381	-638.19769	-632.12964	103.15234	-581.40088	-462.86057	514.58612	-667.5578	-495.27829	500.41281	-576.44354	-531.85034	953.26825	-767.00067	-635.84308	1142.4835	-491.19501	-375.47043	869.46045	-181.8824	-426.79953	943.79791	-151.53145	-500.56021	572.87164	82.661987	-546.50311	639.98499	138.68018
339	1.685	-626.93256	98.344467	-637.77869	-633.31122	99.994705	-584.87671	-464.22934	513.62976	-668.11609	-496.26938	499.49255	-576.92535	-530.93207	953.4892	-767.11371	-637.91644	1139.59	-490.49161	-377.90149	864.17615	-182.31348	-431.04828	936.65717	-150.57863	-506.37119	559.32623	68.176872	-557.09937	624.54114	127.63958
340	1.69	-627.6012	97.273643	-637.32977	-633.23499	100.26224	-582.50537	-465.58908	512.72974	-668.71515	-497.3963	498.58258	-577.56927	-530.12762	953.73157	-767.12933	-640.08124	1136.7633	-489.79837	-380.63324	858.87964	-182.56044	-435.59052	929.32013	-149.77425	-517.11499	545.51215	58.839062	-567.31537	609.30634	115.78548
